HIERARCHY
ROOT Hips
{
  OFFSET -33.9132 29.2015 117.021
  CHANNELS 6 Xposition Yposition Zposition Zrotation Xrotation Yrotation
  JOINT LeftUpLeg
  {
    OFFSET 8.64259 1.95398 -2.38835
    CHANNELS 3 Zrotation Xrotation Yrotation
    JOINT LeftLeg
    {
      OFFSET 43.7702 0 0
      CHANNELS 3 Zrotation Xrotation Yrotation
      JOINT LeftFoot
      {
        OFFSET 40.6238 0 0
        CHANNELS 3 Zrotation Xrotation Yrotation
        JOINT LeftToeBase
        {
          OFFSET 12.7242 0 0
          CHANNELS 3 Zrotation Xrotation Yrotation
          End Site
          {
            OFFSET 0 0 0
          }
        }
      }
    }
  }
  JOINT RightUpLeg
  {
    OFFSET -8.2249 1.95398 -2.59336
    CHANNELS 3 Zrotation Xrotation Yrotation
    JOINT RightLeg
    {
      OFFSET 43.5653 0 0
      CHANNELS 3 Zrotation Xrotation Yrotation
      JOINT RightFoot
      {
        OFFSET 40.6238 0 0
        CHANNELS 3 Zrotation Xrotation Yrotation
        JOINT RightToeBase
        {
          OFFSET 12.7242 0 0
          CHANNELS 3 Zrotation Xrotation Yrotation
          End Site
          {
            OFFSET 0 0 0
          }
        }
      }
    }
  }
  JOINT Spine
  {
    OFFSET 0.165834 0.87714 6.61349
    CHANNELS 3 Zrotation Xrotation Yrotation
    JOINT Spine1
    {
      OFFSET 7.38963 1.71661e-005 0
      CHANNELS 3 Zrotation Xrotation Yrotation
      JOINT Spine2
      {
        OFFSET 11.9445 1.14441e-005 0
        CHANNELS 3 Zrotation Xrotation Yrotation
        JOINT Spine3
        {
          OFFSET 14.7254 4.19617e-005 0
          CHANNELS 3 Zrotation Xrotation Yrotation
          JOINT Spine4
          {
            OFFSET 10.9679 0 0
            CHANNELS 3 Zrotation Xrotation Yrotation
            JOINT RightShoulder
            {
              OFFSET 2.46616 -1.6653 3.69651
              CHANNELS 3 Zrotation Xrotation Yrotation
              JOINT RightArm
              {
                OFFSET 13.0012 0 0
                CHANNELS 3 Zrotation Xrotation Yrotation
                JOINT RightForeArm
                {
                  OFFSET 28.7848 1.62311e-005 0
                  CHANNELS 3 Zrotation Xrotation Yrotation
                  JOINT RightHand
                  {
                    OFFSET 26.5688 1.62095e-005 0
                    CHANNELS 3 Zrotation Xrotation Yrotation
                    End Site
                    {
                      OFFSET 0 0 0
                    }
                  }
                }
              }
            }
            JOINT LeftShoulder
            {
              OFFSET 2.38034 -1.29275 -3.7523
              CHANNELS 3 Zrotation Xrotation Yrotation
              JOINT LeftArm
              {
                OFFSET 16.3182 6.07031e-005 0
                CHANNELS 3 Zrotation Xrotation Yrotation
                JOINT LeftForeArm
                {
                  OFFSET 27.0901 0 0
                  CHANNELS 3 Zrotation Xrotation Yrotation
                  JOINT LeftHand
                  {
                    OFFSET 24.5451 1.51738e-005 0
                    CHANNELS 3 Zrotation Xrotation Yrotation
                    End Site
                    {
                      OFFSET 0 0 0
                    }
                  }
                }
              }
            }
            JOINT Neck
            {
              OFFSET 5.0226 -0.0266342 0
              CHANNELS 3 Zrotation Xrotation Yrotation
              JOINT Head
              {
                OFFSET 6.69364 2.86102e-005 0
                CHANNELS 3 Zrotation Xrotation Yrotation
                End Site
                {
                  OFFSET 0 0 0
                }
              }
            }
          }
        }
      }
    }
  }
}
MOTION
Frames:	17
Frame Time:	0.0416667
32.2039 71.3029 10.6245 -5.96416 -69.5255 -6.48826 -87.4657 64.5171 46.3411 -92.2573 30.8482 -8.17355 92.7974 23.232 -1.10061 4.22967 -14.551 2.89082 92.1851 58.4184 138.07 -96.2293 -21.1659 5.6354 88.0111 -23.1165 -5.64922 26.2349 -1.86697 11.4847 0.654058 10.3309 -90.7392 6.21621 0.994475 -1.48704 -5.45526 0.928082 -1.52936 -27.9892 1.39539 -1.11945 -7.97651 1.39539 -1.11946 89.0566 -18.8883 -114.083 36.0497 -0.0396961 -53.3946 -12.5301 -77.0476 -11.7887 -17.3467 -1.72411 6.45347 -91.2747 -30.2846 71.0009 -23.01 -0.437322 -84.3494 -11.3107 69.2801 -0.0516027 5.74233 1.46655 7.07032 8.14853 0.328968 -2.5874 -8.45271 0.590094 5.57308 
32.6632 66.4286 9.60035 -7.53692 -70.744 -7.90439 -73.0004 64.5903 32.1647 -103.37 28.2925 -2.54227 95.4851 24.7135 -2.08412 4.27366 -14.6296 3.02296 80.5306 57.4508 148.915 -105.792 -19.6009 1.17578 89.4173 -24.897 -6.56615 26.803 -2.00711 11.2707 0.655565 10.6836 -90.7311 5.5107 1.00556 -1.46009 -6.16074 0.940342 -1.50292 -28.6949 1.39786 -1.09042 -8.68227 1.39787 -1.09041 89.294 -18.1894 -113.942 35.4101 0.350632 -54.3949 -12.324 -76.7579 -11.5903 -18.2591 -1.94662 7.2363 -91.7579 -30.9444 70.3447 -22.1252 -1.73892 -84.6268 -11.1329 70.1688 -0.0538157 7.94669 1.62275 8.41574 7.81461 0.333289 -1.84982 -7.65576 0.518892 4.49888 
33.2421 61.478 8.75841 -9.95233 -72.7881 -10.629 -62.8458 63.0649 22.1985 -113.026 25.0823 1.82067 98.5256 26.6879 -2.50974 4.98425 -14.6233 3.5926 71.5895 56.136 157.193 -114.499 -16.3778 -2.66763 92.177 -27.1644 -6.65907 26.9454 -2.09229 11.4177 0.652826 10.9889 -90.6159 4.8999 1.05131 -1.22454 -6.77126 0.996416 -1.26961 -29.3073 1.37072 -0.851985 -9.29461 1.37072 -0.851972 88.8236 -18.1967 -115.046 34.6053 1.38426 -53.8227 -11.4768 -75.4173 -10.7757 -19.7539 -1.71788 4.91453 -91.7252 -30.7079 70.3155 -22.1429 -2.35789 -84.0791 -10.8134 70.368 -0.05434 5.70204 1.47469 7.43745 7.00479 0.423724 -2.01033 -7.59015 0.634048 4.39973 
33.8465 56.5222 8.07978 -13.4995 -75.176 -14.1952 -55.3684 61.235 15.1994 -121.393 20.8938 4.99688 102.853 28.3702 -4.629 6.50298 -13.8682 3.83636 67.3238 54.2135 161.385 -121.198 -11.4669 -5.30054 98.9144 -31.4576 -4.70264 26.8539 -1.92736 10.8791 0.705702 11.2725 -90.5934 4.33318 1.16907 -1.172 -7.33782 1.11638 -1.22231 -29.8751 1.46725 -0.766446 -9.86243 1.46725 -0.766441 88.8824 -18.151 -114.936 34.4023 1.58465 -53.8847 -11.3828 -75.2523 -10.6849 -18.6526 -1.37239 3.37369 -92.0077 -32.3031 70.3942 -21.7766 -2.52351 -83.8728 -10.9875 70.1942 -0.0538821 7.4904 1.5465 7.59695 6.78026 0.273426 -1.24517 -7.60833 0.371601 3.41331 
34.2584 51.5046 7.4632 -18.907 -77.9129 -19.6585 -47.3533 58.9963 7.7443 -129.191 16.8459 7.26349 104.196 29.2083 -4.31618 3.87689 -14.1144 2.02148 63.326 52.1927 165.73 -127.08 -5.32273 -7.22546 105.127 -34.626 -2.13789 26.6657 -1.45632 9.2751 0.768335 11.5304 -90.5286 3.81753 1.32276 -1.03641 -7.85322 1.27587 -1.09363 -30.3924 1.57308 -0.590911 -10.3798 1.57308 -0.590903 88.7323 -18.8455 -114.865 34.8445 1.1757 -53.6492 -12.901 -77.5402 -12.149 -19.1412 -1.72401 5.31011 -91.9504 -32.2321 70.4714 -21.9557 -1.93419 -83.2707 -11.1285 71.0978 -0.056357 8.26414 1.60166 7.99575 6.76954 0.133084 -1.94724 -7.64669 0.356106 3.77118 
34.4397 46.9735 6.65118 -25.8743 -80.8593 -26.5972 -42.6162 57.0189 2.04873 -134.852 11.1423 8.49087 107.748 30.6143 -5.45275 5.23573 -14.7469 3.97006 59.7948 49.6053 170.976 -131.891 2.97156 -8.61932 107.887 -35.6575 -1.38582 26.7003 -1.24268 8.38565 0.801232 11.7632 -90.5062 3.35194 1.39938 -0.983173 -8.31868 1.35475 -1.04383 -30.8588 1.63016 -0.517078 -10.8462 1.63015 -0.517091 88.6537 -18.6431 -115.17 35.4618 0.768235 -52.7892 -13.1385 -77.8356 -12.3794 -23.3308 -2.39565 6.65178 -91.8731 -32.1284 70.5748 -23.977 -1.01734 -82.7067 -10.4091 73.2862 -0.0634826 12.0599 1.81393 8.87216 6.44451 -0.00160735 -2.07413 -7.4759 0.268316 3.30387 
34.4113 43.2579 6.05916 -36.4074 -84.2229 -37.0075 -39.7349 55.934 -2.65237 -139.164 7.19019 8.93508 107.36 30.2848 -4.78217 6.81964 -15.1327 5.82104 58.3254 47.8484 174.423 -135.178 10.6555 -9.41835 108.951 -35.6853 -1.42588 27.2392 -1.11635 7.07914 0.809589 12.0729 -90.5501 2.73265 1.40119 -1.05655 -8.93801 1.35334 -1.1172 -31.4779 1.65393 -0.586524 -11.4653 1.65393 -0.58653 89.0727 -17.4945 -114.891 36.5848 -0.412557 -52.7552 -12.911 -77.5529 -12.1586 -24.6419 -3.18016 9.65003 -91.6516 -32.1738 70.9974 -24.5428 0.414054 -82.6367 -10.7248 71.7175 -0.0581984 14.154 2.31202 11.7967 5.96192 -0.277242 -1.76453 -6.35876 -0.0287436 2.98767 
34.3374 41.1239 5.82264 -62.9741 -86.5648 -63.9648 -39.209 55.8795 -3.85877 -141.415 5.01643 8.93844 106.902 30.071 -4.10713 7.59039 -15.1116 6.48038 58.0341 48.1328 176.186 -137.452 14.227 -9.59805 107.864 -35.2998 -2.83851 27.8965 -1.19999 6.3893 0.863421 12.4341 -90.5616 2.01061 1.50712 -1.06168 -9.65996 1.45895 -1.12699 -32.2009 1.7565 -0.559569 -12.1882 1.75651 -0.559561 89.8539 -16.7244 -113.482 38.039 -2.13818 -53.2676 -10.2637 -72.9576 -9.62231 -25.2303 -3.73921 11.7932 -91.6313 -32.005 70.9732 -25.4251 1.29346 -82.8962 -10.5891 71.5324 -0.0576352 12.5449 1.86316 8.96392 5.82853 -0.469956 -1.11464 -3.8328 -0.273331 2.56867 
34.2741 40.7478 5.54641 -74.5829 -87.013 -75.7187 -39.54 55.8883 -4.05694 -141.233 4.42588 8.93844 107.579 30.9871 -3.64733 2.9772 -16.1792 3.97772 57.7223 48.5563 177.333 -137.658 15.2257 -9.56577 106.908 -34.5374 -3.07914 28.0729 -1.19212 6.07324 0.837455 12.6854 -90.4999 1.50717 1.48085 -0.931351 -10.1633 1.43843 -0.995639 -32.7044 1.69228 -0.443143 -12.6918 1.69228 -0.443157 90.2988 -16.0149 -112.82 37.7224 -2.49926 -55.3116 -10.0027 -72.3182 -9.37526 -25.3659 -3.7535 11.7017 -91.5446 -32.2292 71.2137 -25.6125 1.38394 -83.6081 -10.5475 70.8816 -0.0557429 12.3017 2.02621 10.1128 7.85592 -0.477821 -1.19095 -2.26149 -0.210127 2.47884 
34.3293 41.7716 4.94416 -55.6883 -86.1552 -56.6535 -39.1878 55.2254 -4.56249 -139.637 5.02242 8.95213 106.362 30.4719 -3.20382 4.17994 -16.1334 4.91299 57.3879 48.1713 178.294 -136.183 13.5672 -9.53083 105.089 -34.0885 -4.19396 27.5397 -1.10597 6.57009 0.787401 12.7407 -90.3833 1.39554 1.42572 -0.703486 -10.2749 1.39338 -0.765583 -32.816 1.57121 -0.2424 -12.8034 1.57122 -0.242403 90.2104 -16.188 -112.933 36.651 -1.84792 -56.935 -10.2441 -72.9115 -9.60279 -27.6756 -3.74275 10.2713 -91.5281 -31.7425 71.0665 -25.3609 0.646998 -83.6047 -10.699 69.3411 -0.0517483 15.1354 2.46463 11.9202 11.9667 -0.28633 -1.43507 -0.892937 0.110215 2.18741 
34.4569 42.9813 4.35845 -40.7677 -84.6772 -41.6734 -39.397 54.0488 -4.3391 -137.718 5.66272 9.00019 106.376 30.8271 -2.90494 3.62797 -16.7368 5.23031 56.3801 47.5458 178.88 -134.551 11.3317 -9.48375 104.564 -33.7188 -3.86498 26.4538 -0.949152 7.60362 0.718192 12.7229 -90.3419 1.43044 1.30326 -0.627125 -10.24 1.27441 -0.683882 -32.7802 1.43148 -0.206388 -12.7676 1.43148 -0.206384 89.9055 -16.1591 -113.703 35.5508 -0.9857 -58.1756 -9.49614 -70.9375 -8.90272 -27.1301 -3.30717 8.76855 -91.7735 -31.585 70.5563 -24.3025 -0.729675 -83.7981 -10.6194 69.4075 -0.051908 17.2944 2.26334 9.83322 17.1322 0.31569 -0.114681 -0.201745 0.37451 1.58891 
34.6082 43.645 4.05609 -32.8568 -83.3778 -33.9004 -39.8895 52.7401 -3.85002 -136.241 4.50577 9.06596 108.05 30.5375 -4.8169 0.00611949 -17.5164 3.27725 54.9919 47.2721 179.841 -133.953 9.18419 -9.34917 104.057 -33.452 -3.80216 25.7733 -0.705509 7.66419 0.744182 12.6314 -90.3062 1.61335 1.36843 -0.558979 -10.057 1.3425 -0.618684 -32.5979 1.47315 -0.121793 -12.5852 1.47314 -0.121799 89.7979 -16.9746 -113.465 34.91 -0.437186 -58.8096 -10.0628 -72.4755 -9.43419 -27.1695 -3.33223 8.81706 -91.8748 -31.2114 70.2282 -25.6615 -1.14665 -84.3977 160.252 89.9112 -168.139 27.488 5.95744 24.9915 20.746 0.0931097 0.240328 0.185589 0.0399319 0.970832 
34.6301 43.542 3.93184 -33.0993 -83.4483 -34.1393 -39.878 52.4961 -3.99576 -136.25 4.17062 9.09693 108.08 30.5521 -4.84286 0.306718 -17.5348 3.5378 54.7349 47.0712 179.914 -134.122 8.89721 -9.37842 104.13 -33.4803 -3.86397 25.301 -0.518152 7.63922 0.755767 12.6091 -90.3231 1.65803 1.385 -0.592462 -10.0123 1.35757 -0.652877 -32.5533 1.49901 -0.148754 -12.5406 1.49901 -0.148756 89.7221 -16.9483 -113.666 34.7137 -0.2086 -58.8199 -10.0046 -72.3427 -9.38475 -24.7315 -2.96541 8.56625 -92.1906 -31.073 69.5902 -25.4232 -1.32809 -83.47 174.255 64.9848 -179.957 32.4975 8.4279 35.6788 22.2426 -0.223567 0.0910157 0.886953 -0.195283 1.48375 
34.4851 42.6888 4.00389 -43.414 -84.6566 -44.5884 -39.8273 53.1904 -3.9417 -137.181 2.64648 9.13404 108.654 30.2344 -5.66651 0.442403 -17.5825 3.70051 55.6537 47.2753 179.559 -134.975 10.7022 -9.48785 104.821 -33.744 -3.77046 25.0923 -0.301214 7.14047 0.775624 12.6586 -90.3291 1.55901 1.42251 -0.601147 -10.1113 1.39467 -0.663189 -32.6526 1.5374 -0.145749 -12.64 1.5374 -0.145751 89.9937 -16.5726 -113.232 35.6192 -1.06428 -58.1688 -10.0344 -72.4168 -9.41215 -25.802 -3.123 8.70224 -92.3259 -31.9363 69.6719 -24.837 -0.942108 -82.7852 173.948 59.7611 -179.964 32.1702 8.72472 37.7964 22.3858 -0.405572 0.917669 1.40515 -0.667146 0.691232 
34.317 41.3465 4.1821 -64.05 -86.1193 -65.4558 -39.5546 53.959 -4.48196 -139.182 3.01132 9.09016 107.284 30.7426 -3.61625 3.67027 -17.086 5.71167 56.5582 47.3545 179.626 -136.157 14.4684 -9.67035 105.633 -33.8954 -3.55315 25.477 -0.226104 6.31079 0.764726 12.7272 -90.3624 1.42232 1.38836 -0.664332 -10.2481 1.35777 -0.724811 -32.789 1.52382 -0.216265 -12.7763 1.52382 -0.216278 90.4453 -15.8184 -112.575 36.7506 -2.24413 -57.7572 -9.8234 -71.8756 -9.2156 -24.641 -2.94906 8.58018 -92.3358 -32.3281 69.8037 -25.8727 -0.431413 -82.6453 174.261 60.0462 -179.963 30.8647 7.9752 36.3016 21.6137 -0.759279 1.96302 1.8866 -1.36384 0.0204658 
34.1589 40.1581 4.41998 -103.018 -86.6953 -104.754 -39.9242 54.9752 -4.06323 -140.833 3.03023 8.9955 106.479 30.9703 -2.4136 4.1674 -16.7471 5.69467 57.7752 47.9457 179.033 -137.588 16.587 -9.72482 105.4 -34.3252 -4.74464 26.1471 -0.311764 5.63206 0.716286 12.7686 -90.3113 1.33878 1.31127 -0.565618 -10.3316 1.2851 -0.62279 -32.872 1.42063 -0.1453 -12.8593 1.42063 -0.145297 89.7537 -16.897 -113.62 36.9361 -1.91672 -56.1899 -9.96432 -72.2201 -9.33951 -24.9595 -2.73457 7.43 -92.6175 -32.7912 69.4676 -25.6849 -0.268641 -81.3232 173.66 64.7036 -179.957 29.7553 7.12012 33.0144 19.824 -0.99296 1.61041 2.85739 -1.42532 0.516057 
33.8927 39.6412 4.47252 -122.695 -86.6736 -124.618 -39.7145 55.6518 -4.38752 -141.435 2.7423 8.90357 106.242 30.4071 -2.94376 4.02918 -16.9613 5.85369 58.5404 48.1373 178.74 -137.907 18.4562 -9.77629 105.585 -34.1664 -4.69414 27.2155 -0.571163 4.96866 0.694193 12.7814 -90.3381 1.31338 1.25704 -0.619059 -10.3571 1.22858 -0.67379 -32.8969 1.38496 -0.212587 -12.8843 1.38497 -0.212575 90.0161 -16.901 -112.98 37.3665 -2.38262 -56.1251 -10.2259 -72.868 -9.58501 -22.154 -2.17551 5.99534 -93.0215 -33.191 68.8917 -25.6719 -0.413038 -80.7565 172.797 74.8339 -179.93 29.4305 6.39352 28.3289 19.9296 -1.08272 1.71733 2.90727 -1.55482 0.341488 
